<svg xmlns="http://www.w3.org/2000/svg" width="900" height="360" viewBox="0 0 900 360">
  <rect width="900" height="360" rx="24" fill="#f7fafc"/>
  <g stroke="#94a3b8" stroke-width="3" fill="#e0f2fe"><path d="M50 60L250 55L190 180Z"/><path d="M50 60L190 180L55 305Z"/><path d="M55 305L190 180L300 300Z"/><path d="M250 55L360 165L190 180Z"/><path d="M190 180L360 165L300 300Z"/><path d="M360 165L520 65L540 285Z"/><path d="M520 65L700 60L630 180Z"/><path d="M520 65L630 180L540 285Z"/><path d="M540 285L630 180L720 300Z"/><path d="M700 60L845 70L630 180Z"/><path d="M630 180L845 70L840 300Z"/><path d="M630 180L840 300L720 300Z"/></g>
  <rect x="365" y="115" width="150" height="145" rx="20" fill="#334155"/><text x="440" y="194" text-anchor="middle" font-family="Arial" font-size="21" fill="#fff">obstacle</text>
  <g stroke="#2563eb" stroke-width="12" stroke-linecap="round"><path d="M190 180L300 300"/><path d="M520 65L540 285"/><path d="M630 180L720 300"/></g>
  <polyline points="90,245 190,180 300,300 540,285 630,180 805,230" fill="none" stroke="#e11d48" stroke-width="9" stroke-linecap="round" stroke-linejoin="round"/>
  <circle cx="90" cy="245" r="12" fill="#e11d48"/><circle cx="805" cy="230" r="12" fill="#e11d48"/>
  <text x="75" y="230" font-family="Arial" font-weight="bold" font-size="25">s</text><text x="822" y="235" font-family="Arial" font-weight="bold" font-size="25">t</text>
  <text x="450" y="340" text-anchor="middle" font-family="Arial" font-size="21" fill="#334155">Blue portals connect a finite corridor of traversable cells</text>
</svg>
