<svg xmlns="http://www.w3.org/2000/svg" width="900" height="360" viewBox="0 0 900 360">
  <rect width="900" height="360" rx="24" fill="#f7fafc"/>
  <g stroke="#cbd5e1" stroke-width="2" fill="none"><path d="M80 300L240 50L390 305L540 55L690 305L830 80"/><path d="M80 300L300 175L540 55L760 190L390 305L240 50L690 305L830 80"/></g>
  <g fill="none" stroke="#38bdf8" stroke-width="5" opacity=".8"><path d="M120 190A55 55 0 0 1 205 250"/><path d="M95 145A115 115 0 0 1 265 280"/><path d="M80 95A180 180 0 0 1 335 305"/><path d="M65 55A245 245 0 0 1 425 320"/></g>
  <circle cx="135" cy="235" r="14" fill="#2563eb"/><text x="108" y="230" font-family="Arial" font-weight="bold" font-size="25">q</text>
  <circle cx="765" cy="125" r="14" fill="#e11d48"/><text x="790" y="132" font-family="Arial" font-weight="bold" font-size="25">t</text>
  <path d="M135 235C265 150 350 285 470 190S650 170 765 125" fill="none" stroke="#e11d48" stroke-width="10" stroke-linecap="round"/>
  <g font-family="Arial" font-size="18" fill="#0369a1"><text x="270" y="88">wavefront</text><text x="460" y="100">shortest-path regions</text></g>
  <text x="450" y="340" text-anchor="middle" font-family="Arial" font-size="21" fill="#334155">A continuous wavefront subdivides the surface into path regions</text>
</svg>
