<svg xmlns="http://www.w3.org/2000/svg" width="900" height="360" viewBox="0 0 900 360">
  <defs><radialGradient id="heat" cx="20%" cy="65%" r="85%"><stop offset="0" stop-color="#ef4444"/><stop offset=".23" stop-color="#f59e0b"/><stop offset=".48" stop-color="#fde047"/><stop offset=".7" stop-color="#22c55e"/><stop offset="1" stop-color="#2563eb"/></radialGradient></defs>
  <rect width="900" height="360" rx="24" fill="#f7fafc"/>
  <path d="M55 60Q220 25 390 75T845 55V295Q660 330 480 285T55 300Z" fill="url(#heat)" opacity=".9"/>
  <g stroke="#fff" stroke-width="1.5" opacity=".55"><path d="M55 120H845M55 180H845M55 240H845"/><path d="M150 45V310M260 45V310M370 45V310M480 45V310M590 45V310M700 45V310M810 45V310"/><path d="M55 120L150 45M150 120L260 45M260 120L370 45M370 120L480 45M480 120L590 45M590 120L700 45M700 120L810 45M55 240L150 180M150 240L260 180M260 240L370 180M370 240L480 180M480 240L590 180M590 240L700 180M700 240L810 180"/></g>
  <circle cx="145" cy="235" r="15" fill="#fff" stroke="#991b1b" stroke-width="6"/><text x="115" y="235" font-family="Arial" font-weight="bold" font-size="24" fill="#fff">s</text>
  <circle cx="775" cy="95" r="15" fill="#fff" stroke="#1e3a8a" stroke-width="6"/><text x="800" y="102" font-family="Arial" font-weight="bold" font-size="24" fill="#fff">t</text>
  <path d="M775 95C650 130 565 150 470 178S285 215 145 235" fill="none" stroke="#111827" stroke-width="10" stroke-linecap="round"/>
  <text x="450" y="340" text-anchor="middle" font-family="Arial" font-size="21" fill="#334155">A pre-factorized operator produces a distance field; descent traces the path</text>
</svg>
